<mxfile host="app.diagrams.net" agent="Mozilla/5.0 (X11; Linux x86_64; rv:132.0) Gecko/20100101 Firefox/132.0" version="24.8.3">
  <diagram name="Страница — 1" id="xgpNUnDWh-rEqGGWwKBR">
    <mxGraphModel dx="1127" dy="1051" grid="1" gridSize="10" guides="1" tooltips="1" connect="1" arrows="1" fold="1" page="1" pageScale="1" pageWidth="827" pageHeight="1169" math="0" shadow="0">
      <root>
        <mxCell id="0" />
        <mxCell id="1" parent="0" />
        <mxCell id="kJq0IzJaglCfQk2x1SoS-1" value="Browser" style="rounded=0;whiteSpace=wrap;html=1;" vertex="1" parent="1">
          <mxGeometry x="110" y="240" width="120" height="60" as="geometry" />
        </mxCell>
        <mxCell id="kJq0IzJaglCfQk2x1SoS-2" value="Web-server" style="rounded=0;whiteSpace=wrap;html=1;" vertex="1" parent="1">
          <mxGeometry x="280" y="240" width="120" height="60" as="geometry" />
        </mxCell>
        <mxCell id="kJq0IzJaglCfQk2x1SoS-7" style="rounded=0;orthogonalLoop=1;jettySize=auto;html=1;entryX=0.25;entryY=0;entryDx=0;entryDy=0;" edge="1" parent="1" source="kJq0IzJaglCfQk2x1SoS-4" target="kJq0IzJaglCfQk2x1SoS-6">
          <mxGeometry relative="1" as="geometry" />
        </mxCell>
        <mxCell id="kJq0IzJaglCfQk2x1SoS-4" value="WSGI" style="rounded=0;whiteSpace=wrap;html=1;" vertex="1" parent="1">
          <mxGeometry x="280" y="330" width="120" height="60" as="geometry" />
        </mxCell>
        <mxCell id="kJq0IzJaglCfQk2x1SoS-10" style="rounded=0;orthogonalLoop=1;jettySize=auto;html=1;entryX=0.5;entryY=0;entryDx=0;entryDy=0;" edge="1" parent="1" source="kJq0IzJaglCfQk2x1SoS-6" target="kJq0IzJaglCfQk2x1SoS-9">
          <mxGeometry relative="1" as="geometry" />
        </mxCell>
        <mxCell id="kJq0IzJaglCfQk2x1SoS-6" value="REQUEST(Middleware)" style="rounded=0;whiteSpace=wrap;html=1;" vertex="1" parent="1">
          <mxGeometry x="430" y="380" width="120" height="60" as="geometry" />
        </mxCell>
        <mxCell id="kJq0IzJaglCfQk2x1SoS-12" style="rounded=0;orthogonalLoop=1;jettySize=auto;html=1;entryX=0.5;entryY=0;entryDx=0;entryDy=0;" edge="1" parent="1" source="kJq0IzJaglCfQk2x1SoS-9" target="kJq0IzJaglCfQk2x1SoS-11">
          <mxGeometry relative="1" as="geometry" />
        </mxCell>
        <mxCell id="kJq0IzJaglCfQk2x1SoS-9" value="URL RESOLUTION(ursl.py)" style="rounded=0;whiteSpace=wrap;html=1;" vertex="1" parent="1">
          <mxGeometry x="480" y="470" width="120" height="60" as="geometry" />
        </mxCell>
        <mxCell id="kJq0IzJaglCfQk2x1SoS-14" style="rounded=0;orthogonalLoop=1;jettySize=auto;html=1;entryX=1;entryY=0.5;entryDx=0;entryDy=0;" edge="1" parent="1" source="kJq0IzJaglCfQk2x1SoS-11" target="kJq0IzJaglCfQk2x1SoS-13">
          <mxGeometry relative="1" as="geometry" />
        </mxCell>
        <mxCell id="kJq0IzJaglCfQk2x1SoS-11" value="VIEW(Middleware)" style="rounded=0;whiteSpace=wrap;html=1;" vertex="1" parent="1">
          <mxGeometry x="430" y="570" width="120" height="60" as="geometry" />
        </mxCell>
        <mxCell id="kJq0IzJaglCfQk2x1SoS-16" style="edgeStyle=orthogonalEdgeStyle;rounded=0;orthogonalLoop=1;jettySize=auto;html=1;entryX=0.5;entryY=0;entryDx=0;entryDy=0;" edge="1" parent="1" source="kJq0IzJaglCfQk2x1SoS-13" target="kJq0IzJaglCfQk2x1SoS-15">
          <mxGeometry relative="1" as="geometry" />
        </mxCell>
        <mxCell id="kJq0IzJaglCfQk2x1SoS-52" style="edgeStyle=orthogonalEdgeStyle;rounded=0;orthogonalLoop=1;jettySize=auto;html=1;entryX=0.5;entryY=1;entryDx=0;entryDy=0;" edge="1" parent="1" source="kJq0IzJaglCfQk2x1SoS-13" target="kJq0IzJaglCfQk2x1SoS-51">
          <mxGeometry relative="1" as="geometry" />
        </mxCell>
        <mxCell id="kJq0IzJaglCfQk2x1SoS-13" value="VIEW(views.py)" style="rounded=0;whiteSpace=wrap;html=1;" vertex="1" parent="1">
          <mxGeometry x="280" y="580" width="120" height="60" as="geometry" />
        </mxCell>
        <mxCell id="kJq0IzJaglCfQk2x1SoS-19" style="rounded=0;orthogonalLoop=1;jettySize=auto;html=1;entryX=0.5;entryY=0;entryDx=0;entryDy=0;" edge="1" parent="1" source="kJq0IzJaglCfQk2x1SoS-15" target="kJq0IzJaglCfQk2x1SoS-18">
          <mxGeometry relative="1" as="geometry" />
        </mxCell>
        <mxCell id="kJq0IzJaglCfQk2x1SoS-21" style="rounded=0;orthogonalLoop=1;jettySize=auto;html=1;entryX=0.5;entryY=0;entryDx=0;entryDy=0;" edge="1" parent="1" source="kJq0IzJaglCfQk2x1SoS-15" target="kJq0IzJaglCfQk2x1SoS-20">
          <mxGeometry relative="1" as="geometry" />
        </mxCell>
        <mxCell id="kJq0IzJaglCfQk2x1SoS-41" style="edgeStyle=orthogonalEdgeStyle;rounded=0;orthogonalLoop=1;jettySize=auto;html=1;" edge="1" parent="1" source="kJq0IzJaglCfQk2x1SoS-15" target="kJq0IzJaglCfQk2x1SoS-42">
          <mxGeometry relative="1" as="geometry">
            <mxPoint x="570" y="680" as="targetPoint" />
          </mxGeometry>
        </mxCell>
        <mxCell id="kJq0IzJaglCfQk2x1SoS-15" value="REQUEST" style="ellipse;whiteSpace=wrap;html=1;" vertex="1" parent="1">
          <mxGeometry x="300" y="660" width="80" height="40" as="geometry" />
        </mxCell>
        <mxCell id="kJq0IzJaglCfQk2x1SoS-23" style="edgeStyle=orthogonalEdgeStyle;rounded=0;orthogonalLoop=1;jettySize=auto;html=1;entryX=0.5;entryY=0;entryDx=0;entryDy=0;" edge="1" parent="1" source="kJq0IzJaglCfQk2x1SoS-18" target="kJq0IzJaglCfQk2x1SoS-22">
          <mxGeometry relative="1" as="geometry" />
        </mxCell>
        <mxCell id="kJq0IzJaglCfQk2x1SoS-18" value="BuildContext" style="ellipse;whiteSpace=wrap;html=1;" vertex="1" parent="1">
          <mxGeometry x="200" y="750" width="70" height="40" as="geometry" />
        </mxCell>
        <mxCell id="kJq0IzJaglCfQk2x1SoS-33" style="edgeStyle=orthogonalEdgeStyle;rounded=0;orthogonalLoop=1;jettySize=auto;html=1;entryX=0.5;entryY=0;entryDx=0;entryDy=0;" edge="1" parent="1" source="kJq0IzJaglCfQk2x1SoS-20" target="kJq0IzJaglCfQk2x1SoS-31">
          <mxGeometry relative="1" as="geometry" />
        </mxCell>
        <mxCell id="kJq0IzJaglCfQk2x1SoS-20" value="VIEW(workspace)" style="rounded=0;whiteSpace=wrap;html=1;" vertex="1" parent="1">
          <mxGeometry x="363" y="750" width="100" height="40" as="geometry" />
        </mxCell>
        <mxCell id="kJq0IzJaglCfQk2x1SoS-26" style="edgeStyle=orthogonalEdgeStyle;rounded=0;orthogonalLoop=1;jettySize=auto;html=1;" edge="1" parent="1" source="kJq0IzJaglCfQk2x1SoS-22" target="kJq0IzJaglCfQk2x1SoS-25">
          <mxGeometry relative="1" as="geometry" />
        </mxCell>
        <mxCell id="kJq0IzJaglCfQk2x1SoS-22" value="Action(ContractEditWindow)" style="rounded=0;whiteSpace=wrap;html=1;" vertex="1" parent="1">
          <mxGeometry x="160" y="810" width="150" height="60" as="geometry" />
        </mxCell>
        <mxCell id="kJq0IzJaglCfQk2x1SoS-24" value="&amp;nbsp;" style="text;whiteSpace=wrap;html=1;" vertex="1" parent="1">
          <mxGeometry x="80" y="270" width="40" height="40" as="geometry" />
        </mxCell>
        <mxCell id="kJq0IzJaglCfQk2x1SoS-28" style="edgeStyle=orthogonalEdgeStyle;rounded=0;orthogonalLoop=1;jettySize=auto;html=1;entryX=0.5;entryY=0;entryDx=0;entryDy=0;" edge="1" parent="1" source="kJq0IzJaglCfQk2x1SoS-25" target="kJq0IzJaglCfQk2x1SoS-27">
          <mxGeometry relative="1" as="geometry" />
        </mxCell>
        <mxCell id="kJq0IzJaglCfQk2x1SoS-25" value="WinAsResult(str[js_code])" style="ellipse;whiteSpace=wrap;html=1;" vertex="1" parent="1">
          <mxGeometry x="160" y="890" width="150" height="80" as="geometry" />
        </mxCell>
        <mxCell id="kJq0IzJaglCfQk2x1SoS-37" style="edgeStyle=orthogonalEdgeStyle;rounded=0;orthogonalLoop=1;jettySize=auto;html=1;" edge="1" parent="1" source="kJq0IzJaglCfQk2x1SoS-27">
          <mxGeometry relative="1" as="geometry">
            <mxPoint x="235" y="1090.0000000000002" as="targetPoint" />
          </mxGeometry>
        </mxCell>
        <mxCell id="kJq0IzJaglCfQk2x1SoS-27" value="Responce(content=bytes[js_code])" style="rounded=0;whiteSpace=wrap;html=1;" vertex="1" parent="1">
          <mxGeometry x="142.5" y="990" width="185" height="60" as="geometry" />
        </mxCell>
        <mxCell id="kJq0IzJaglCfQk2x1SoS-38" style="edgeStyle=orthogonalEdgeStyle;rounded=0;orthogonalLoop=1;jettySize=auto;html=1;" edge="1" parent="1" source="kJq0IzJaglCfQk2x1SoS-31">
          <mxGeometry relative="1" as="geometry">
            <mxPoint x="230" y="1090" as="targetPoint" />
            <Array as="points">
              <mxPoint x="414" y="1090" />
            </Array>
          </mxGeometry>
        </mxCell>
        <mxCell id="kJq0IzJaglCfQk2x1SoS-31" value="Response(content=bytes[html])" style="rounded=0;whiteSpace=wrap;html=1;" vertex="1" parent="1">
          <mxGeometry x="340" y="810" width="170" height="60" as="geometry" />
        </mxCell>
        <mxCell id="kJq0IzJaglCfQk2x1SoS-40" value="" style="endArrow=classic;html=1;rounded=0;entryX=0;entryY=0.5;entryDx=0;entryDy=0;edgeStyle=orthogonalEdgeStyle;" edge="1" parent="1" target="kJq0IzJaglCfQk2x1SoS-15">
          <mxGeometry width="50" height="50" relative="1" as="geometry">
            <mxPoint x="240" y="1090" as="sourcePoint" />
            <mxPoint x="180" y="1140" as="targetPoint" />
            <Array as="points">
              <mxPoint x="235" y="1090" />
              <mxPoint x="235" y="1130" />
              <mxPoint x="60" y="1130" />
              <mxPoint x="60" y="680" />
            </Array>
          </mxGeometry>
        </mxCell>
        <mxCell id="kJq0IzJaglCfQk2x1SoS-44" value="" style="edgeStyle=orthogonalEdgeStyle;rounded=0;orthogonalLoop=1;jettySize=auto;html=1;" edge="1" parent="1" source="kJq0IzJaglCfQk2x1SoS-42" target="kJq0IzJaglCfQk2x1SoS-43">
          <mxGeometry relative="1" as="geometry" />
        </mxCell>
        <mxCell id="kJq0IzJaglCfQk2x1SoS-47" style="edgeStyle=orthogonalEdgeStyle;rounded=0;orthogonalLoop=1;jettySize=auto;html=1;entryX=0;entryY=0.5;entryDx=0;entryDy=0;" edge="1" parent="1" source="kJq0IzJaglCfQk2x1SoS-42" target="kJq0IzJaglCfQk2x1SoS-46">
          <mxGeometry relative="1" as="geometry" />
        </mxCell>
        <mxCell id="kJq0IzJaglCfQk2x1SoS-42" value="Process" style="ellipse;whiteSpace=wrap;html=1;" vertex="1" parent="1">
          <mxGeometry x="580" y="660" width="50" height="40" as="geometry" />
        </mxCell>
        <mxCell id="kJq0IzJaglCfQk2x1SoS-48" style="edgeStyle=orthogonalEdgeStyle;rounded=0;orthogonalLoop=1;jettySize=auto;html=1;entryX=0;entryY=0.5;entryDx=0;entryDy=0;" edge="1" parent="1" source="kJq0IzJaglCfQk2x1SoS-43" target="kJq0IzJaglCfQk2x1SoS-45">
          <mxGeometry relative="1" as="geometry" />
        </mxCell>
        <mxCell id="kJq0IzJaglCfQk2x1SoS-43" value="&lt;div&gt;template = get_template(&#39;*.html&#39;)&lt;br&gt;&lt;/div&gt;&lt;div&gt;template.render(action_data)&lt;/div&gt;" style="whiteSpace=wrap;html=1;" vertex="1" parent="1">
          <mxGeometry x="540" y="740" width="190" height="60" as="geometry" />
        </mxCell>
        <mxCell id="kJq0IzJaglCfQk2x1SoS-50" style="edgeStyle=orthogonalEdgeStyle;rounded=0;orthogonalLoop=1;jettySize=auto;html=1;entryX=0.5;entryY=1;entryDx=0;entryDy=0;" edge="1" parent="1" source="kJq0IzJaglCfQk2x1SoS-45" target="kJq0IzJaglCfQk2x1SoS-13">
          <mxGeometry relative="1" as="geometry">
            <Array as="points">
              <mxPoint x="740" y="960" />
              <mxPoint x="930" y="960" />
              <mxPoint x="930" y="650" />
              <mxPoint x="340" y="650" />
            </Array>
          </mxGeometry>
        </mxCell>
        <mxCell id="kJq0IzJaglCfQk2x1SoS-45" value="HttpResponse" style="ellipse;whiteSpace=wrap;html=1;" vertex="1" parent="1">
          <mxGeometry x="680" y="850" width="120" height="80" as="geometry" />
        </mxCell>
        <mxCell id="kJq0IzJaglCfQk2x1SoS-49" style="edgeStyle=orthogonalEdgeStyle;rounded=0;orthogonalLoop=1;jettySize=auto;html=1;entryX=1;entryY=0.5;entryDx=0;entryDy=0;" edge="1" parent="1" source="kJq0IzJaglCfQk2x1SoS-46" target="kJq0IzJaglCfQk2x1SoS-45">
          <mxGeometry relative="1" as="geometry">
            <Array as="points">
              <mxPoint x="850" y="890" />
            </Array>
          </mxGeometry>
        </mxCell>
        <mxCell id="kJq0IzJaglCfQk2x1SoS-46" value="Response(content=bytes[html])" style="rounded=0;whiteSpace=wrap;html=1;" vertex="1" parent="1">
          <mxGeometry x="730" y="660" width="170" height="60" as="geometry" />
        </mxCell>
        <mxCell id="kJq0IzJaglCfQk2x1SoS-53" style="edgeStyle=orthogonalEdgeStyle;rounded=0;orthogonalLoop=1;jettySize=auto;html=1;entryX=0;entryY=0.5;entryDx=0;entryDy=0;" edge="1" parent="1" source="kJq0IzJaglCfQk2x1SoS-51" target="kJq0IzJaglCfQk2x1SoS-4">
          <mxGeometry relative="1" as="geometry">
            <Array as="points">
              <mxPoint x="150" y="350" />
            </Array>
          </mxGeometry>
        </mxCell>
        <mxCell id="kJq0IzJaglCfQk2x1SoS-51" value="Response(Middleware)" style="rounded=0;whiteSpace=wrap;html=1;" vertex="1" parent="1">
          <mxGeometry x="90" y="470" width="120" height="60" as="geometry" />
        </mxCell>
        <mxCell id="kJq0IzJaglCfQk2x1SoS-54" value="" style="endArrow=classic;startArrow=classic;html=1;rounded=0;entryX=1;entryY=0.5;entryDx=0;entryDy=0;exitX=0;exitY=0.5;exitDx=0;exitDy=0;" edge="1" parent="1" source="kJq0IzJaglCfQk2x1SoS-2" target="kJq0IzJaglCfQk2x1SoS-1">
          <mxGeometry width="50" height="50" relative="1" as="geometry">
            <mxPoint x="310" y="370" as="sourcePoint" />
            <mxPoint x="360" y="320" as="targetPoint" />
          </mxGeometry>
        </mxCell>
        <mxCell id="kJq0IzJaglCfQk2x1SoS-55" value="" style="endArrow=classic;startArrow=classic;html=1;rounded=0;entryX=0.5;entryY=1;entryDx=0;entryDy=0;exitX=0.5;exitY=0;exitDx=0;exitDy=0;" edge="1" parent="1" source="kJq0IzJaglCfQk2x1SoS-4" target="kJq0IzJaglCfQk2x1SoS-2">
          <mxGeometry width="50" height="50" relative="1" as="geometry">
            <mxPoint x="290" y="280" as="sourcePoint" />
            <mxPoint x="240" y="280" as="targetPoint" />
          </mxGeometry>
        </mxCell>
      </root>
    </mxGraphModel>
  </diagram>
</mxfile>
